HIERARCHY
ROOT Hips
{
	OFFSET 0.000000 0.000000 0.000000
	CHANNELS 6 Xposition Yposition Zposition Zrotation Yrotation Xrotation 
	JOINT LHipJoint
	{
		OFFSET 0.000000 0.000000 0.000000
		CHANNELS 3 Zrotation Yrotation Xrotation
		JOINT LeftUpLeg
		{
			OFFSET 1.363060 -1.794630 0.839290
			CHANNELS 3 Zrotation Yrotation Xrotation
			JOINT LeftLeg
			{
				OFFSET 2.448110 -6.726130 0.000000
				CHANNELS 3 Zrotation Yrotation Xrotation
				JOINT LeftFoot
				{
					OFFSET 2.562200 -7.039590 0.000000
					CHANNELS 3 Zrotation Yrotation Xrotation
					JOINT LeftToeBase
					{
						OFFSET 0.157640 -0.433110 2.322550
						CHANNELS 3 Zrotation Yrotation Xrotation
						End Site
						{
							OFFSET 0.000000 0.000000 0.000000
						}
					}
				}
			}
		}
	}
	JOINT RHipJoint
	{
		OFFSET 0.000000 0.000000 0.000000
		CHANNELS 3 Zrotation Yrotation Xrotation
		JOINT RightUpLeg
		{
			OFFSET -1.305520 -1.794630 0.839290
			CHANNELS 3 Zrotation Yrotation Xrotation
			JOINT RightLeg
			{
				OFFSET -2.542530 -6.985550 0.000000
				CHANNELS 3 Zrotation Yrotation Xrotation
				JOINT RightFoot
				{
					OFFSET -2.568260 -7.056230 0.000000
					CHANNELS 3 Zrotation Yrotation Xrotation
					JOINT RightToeBase
					{
						OFFSET -0.164730 -0.452590 2.363150
						CHANNELS 3 Zrotation Yrotation Xrotation
						End Site
						{
							OFFSET 0.000000 0.000000 0.000000
						}
					}
				}
			}
		}
	}
	JOINT LowerBack
	{
		OFFSET 0.000000 0.000000 0.000000
		CHANNELS 3 Zrotation Yrotation Xrotation
		JOINT Spine
		{
			OFFSET 0.028270 2.035590 -0.193380
			CHANNELS 3 Zrotation Yrotation Xrotation
			JOINT Spine1
			{
				OFFSET 0.056720 2.048850 -0.042750
				CHANNELS 3 Zrotation Yrotation Xrotation
				JOINT Neck
				{
					OFFSET 0.000000 0.000000 0.000000
					CHANNELS 3 Zrotation Yrotation Xrotation
					JOINT Neck1
					{
						OFFSET -0.054170 1.746240 0.172020
						CHANNELS 3 Zrotation Yrotation Xrotation
						JOINT Head
						{
							OFFSET 0.104070 1.761360 -0.123970
							CHANNELS 3 Zrotation Yrotation Xrotation
							End Site
							{
								OFFSET 0.000000 0.000000 0.000000
							}
						}
					}
				}
				JOINT LeftShoulder
				{
					OFFSET 0.000000 0.000000 0.000000
					CHANNELS 3 Zrotation Yrotation Xrotation
					JOINT LeftArm
					{
						OFFSET 3.362410 1.200890 -0.311210
						CHANNELS 3 Zrotation Yrotation Xrotation
						JOINT LeftForeArm
						{
							OFFSET 4.983000 -0.000000 -0.000000
							CHANNELS 3 Zrotation Yrotation Xrotation
							JOINT LeftHand
							{
								OFFSET 3.483560 -0.000000 -0.000000
								CHANNELS 3 Zrotation Yrotation Xrotation
								JOINT LeftFingerBase
								{
									OFFSET 0.000000 0.000000 0.000000
									CHANNELS 3 Zrotation Yrotation Xrotation
									JOINT LeftHandIndex1
									{
										OFFSET 0.715260 -0.000000 -0.000000
										CHANNELS 3 Zrotation Yrotation Xrotation
										End Site
										{
											OFFSET 0.000000 0.000000 0.000000
										}
									}
								}
								JOINT LThumb
								{
									OFFSET 0.000000 0.000000 0.000000
									CHANNELS 3 Zrotation Yrotation Xrotation
									End Site
									{
										OFFSET 0.000000 0.000000 0.000000
									}
								}
							}
						}
					}
				}
				JOINT RightShoulder
				{
					OFFSET 0.000000 0.000000 0.000000
					CHANNELS 3 Zrotation Yrotation Xrotation
					JOINT RightArm
					{
						OFFSET -3.136600 1.374050 -0.404650
						CHANNELS 3 Zrotation Yrotation Xrotation
						JOINT RightForeArm
						{
							OFFSET -5.241900 -0.000000 -0.000000
							CHANNELS 3 Zrotation Yrotation Xrotation
							JOINT RightHand
							{
								OFFSET -3.444170 -0.000000 -0.000000
								CHANNELS 3 Zrotation Yrotation Xrotation
								JOINT RightFingerBase
								{
									OFFSET 0.000000 0.000000 0.000000
									CHANNELS 3 Zrotation Yrotation Xrotation
									JOINT RightHandIndex1
									{
										OFFSET -0.622530 -0.000000 -0.000000
										CHANNELS 3 Zrotation Yrotation Xrotation
										End Site
										{
											OFFSET 0.000000 0.000000 0.000000
										}
									}
								}
								JOINT RThumb
								{
									OFFSET 0.000000 0.000000 0.000000
									CHANNELS 3 Zrotation Yrotation Xrotation
									End Site
									{
										OFFSET 0.000000 0.000000 0.000000
									}
								}
							}
						}
					}
				}
			}
		}
	}
}
MOTION
Frames: 8
Frame Time: 0.008333
2.468452 16.037992 2.251121 -13.442725 -80.958837 32.084014 -12.162358 -0.881640 2.321341 4.985814 7.121991 -48.174057 -0.526722 2.979441 46.809059 2.538103 12.788326 -7.886442 0.306301 0.000000 -67.803100 9.022150 1.234177 -1.922764 -1.866166 -16.874339 -31.278590 1.171447 -1.672747 35.170700 -2.227425 -11.634368 -1.882037 -1.787900 -0.000000 -82.445799 5.043830 -3.935650 -0.465322 0.065860 -4.344276 -3.754630 -7.723617 -4.385592 -4.192414 12.914797 -9.777548 -2.272882 -3.549814 -0.320337 1.443411 0.000000 0.000000 0.000000 16.642331 -6.099301 -5.096769 -78.115469 -62.528088 15.831603 179.200607 -69.995488 179.725764 13.721518 -17.904375 -2.379028 -0.143605 1.464382 -0.000000 0.000000 0.000000 0.000000 0.000000 0.000000 0.000000 12.407096 -8.050275 1.995627 55.514581 -1.424402 -2.843599 179.904434 74.435812 179.864051 -19.780905 14.717936 -2.740655 0.314071 -0.675871 -0.000000 0.000000 0.000000 0.000000 0.000000 0.000000 0.000000 
2.430025 16.060178 2.281299 -9.505262 -78.181382 28.566055 -11.919171 -0.701818 2.809433 4.893456 5.229962 -48.874914 -0.507988 2.827726 45.902349 2.383114 11.753136 -7.723394 0.326400 0.000000 -67.753100 9.249173 1.219034 -2.032669 -2.141141 -17.814122 -29.956333 1.170921 -1.553740 33.986970 -2.383098 -12.620974 -1.512110 -2.021500 -0.000000 -82.376599 4.755097 -3.874090 -0.933296 0.030410 -4.274073 -3.831005 -7.628921 -4.319254 -4.065612 12.724058 -10.187287 -2.610051 -3.520791 -0.315414 1.354762 0.000000 0.000000 0.000000 16.538563 -5.960913 -5.232789 -79.478020 -62.393692 18.077844 179.307311 -70.167143 179.731932 13.521173 -17.992442 -2.355978 -0.147911 1.466012 -0.000000 0.000000 0.000000 0.000000 0.000000 0.000000 0.000000 12.241945 -8.175069 2.253148 54.222120 -4.324370 -4.506728 179.835189 74.773912 179.873918 -19.661168 14.802331 -2.735383 0.317438 -0.654081 0.000000 0.000000 0.000000 0.000000 0.000000 0.000000 0.000000 
2.387844 16.088368 2.310307 -6.354412 -75.254175 25.906547 -11.688605 -0.529420 3.322149 4.712642 3.235809 -49.553053 -0.496858 2.652982 44.786759 2.214309 10.674121 -7.388029 0.371600 -0.000000 -67.729200 9.456017 1.171680 -2.120829 -2.477239 -18.800904 -28.574932 1.174888 -1.426096 32.609514 -2.542536 -13.642986 -1.041878 -2.302200 0.000000 -82.217200 4.327348 -3.851104 -1.439928 -0.021713 -4.231382 -3.906204 -7.492866 -4.281098 -3.902805 12.479832 -10.651140 -2.971334 -3.477165 -0.309255 1.259367 0.000000 0.000000 0.000000 16.398286 -5.815399 -5.375451 -80.729446 -62.193424 20.217600 179.406553 -70.294702 179.738268 13.323648 -18.080276 -2.333150 -0.152630 1.467088 -0.000000 0.000000 0.000000 0.000000 0.000000 0.000000 0.000000 12.003001 -8.384078 2.512249 52.934001 -7.141949 -6.099893 179.776267 75.331796 179.883603 -19.633567 14.872742 -2.740136 0.321466 -0.629864 -0.000000 0.000000 0.000000 0.000000 0.000000 0.000000 0.000000 
2.342021 16.122070 2.338653 -3.722090 -72.207918 23.838194 -11.457781 -0.349224 3.859803 4.454374 1.146189 -50.192561 -0.495983 2.461004 43.450907 2.032933 9.564839 -6.865045 0.435400 0.000000 -67.749700 9.655639 1.108705 -2.192871 -2.865725 -19.838136 -27.143693 1.178135 -1.286722 31.046168 -2.706109 -14.711861 -0.448428 -2.644200 -0.000000 -82.190200 3.768719 -3.863565 -1.973034 -0.089491 -4.212452 -3.977806 -7.315973 -4.267159 -3.705109 12.182941 -11.155330 -3.350875 -3.415561 -0.301598 1.158646 0.000000 0.000000 0.000000 16.216240 -5.661781 -5.516756 -81.841932 -61.948388 22.222780 179.495640 -70.387271 179.744595 13.134390 -18.166439 -2.311147 -0.157494 1.467341 -0.000000 0.000000 0.000000 0.000000 0.000000 0.000000 0.000000 11.675465 -8.663998 2.770946 51.661789 -9.827189 -7.604016 179.730762 76.130560 179.893100 -19.658378 14.902884 -2.744617 0.325301 -0.603503 0.000000 0.000000 0.000000 0.000000 0.000000 0.000000 0.000000 
2.293026 16.160685 2.366804 -1.454489 -69.070028 22.204958 -11.215925 -0.153603 4.418966 4.131321 -1.032449 -50.770216 -0.507159 2.255653 41.885860 1.841019 8.443842 -6.143438 0.510100 -0.000000 -67.824701 9.858856 1.041514 -2.255670 -3.300874 -20.929194 -25.672150 1.178405 -1.136406 29.321378 -2.871170 -15.817874 0.264711 -3.052700 0.000000 -82.096501 3.089274 -3.910082 -2.515818 -0.172100 -4.215566 -4.042504 -7.101230 -4.275386 -3.474361 11.836445 -11.686624 -3.742798 -3.332829 -0.292179 1.053921 0.000000 0.000000 0.000000 15.987185 -5.499188 -5.648336 -82.793143 -61.689511 24.075881 179.571965 -70.458058 179.750644 12.966013 -18.238882 -2.290875 -0.162459 1.466219 -0.000000 0.000000 0.000000 0.000000 0.000000 0.000000 0.000000 11.244460 -9.000563 3.027637 50.420745 -12.327004 -9.012108 179.700870 77.174509 179.902367 -19.684565 14.877575 -2.738929 0.328078 -0.575779 0.000000 0.000000 0.000000 0.000000 0.000000 0.000000 0.000000 
2.241402 16.203505 2.395261 0.540922 -65.868360 20.910861 -10.954948 0.059948 4.994804 3.760009 -3.294279 -51.260821 -0.531481 2.039967 40.087203 1.641800 7.335485 -5.217600 0.587400 -0.000000 -67.960100 10.073992 0.978512 -2.317037 -3.777228 -22.079678 -24.170739 1.174406 -0.977156 27.453402 -3.034939 -16.953901 1.107777 -3.536400 -0.000001 -81.993000 2.301730 -3.989110 -3.050301 -0.268648 -4.239334 -4.097922 -6.853244 -4.304242 -3.217101 11.446191 -12.221674 -4.137342 -3.227555 -0.280901 0.947571 0.000000 0.000000 0.000000 15.710249 -5.329433 -5.762316 -83.577436 -61.443537 25.773503 179.634656 -70.523312 179.756256 12.823783 -18.291628 -2.272440 -0.167350 1.463392 -0.000000 0.000000 0.000000 0.000000 0.000000 0.000000 0.000000 10.702939 -9.365915 3.281570 49.214962 -14.611530 -10.330294 179.687346 78.439706 179.911306 -19.663942 14.790474 -2.715368 0.329261 -0.547758 0.000000 0.000000 0.000000 0.000000 0.000000 0.000000 0.000000 
2.188076 16.249761 2.424527 2.321014 -62.635724 19.892472 -10.669833 0.289314 5.580254 3.360903 -5.628751 -51.638461 -0.569747 1.816843 38.056500 1.439671 6.269161 -4.088477 0.660200 -0.000000 -68.152000 10.306412 0.925860 -2.385783 -4.290769 -23.292250 -22.649361 1.166214 -0.812257 25.465098 -3.193157 -18.103820 2.083546 -4.100100 0.000001 -81.879400 1.422681 -4.096820 -3.556564 -0.377883 -4.280714 -4.141824 -6.577612 -4.350564 -2.942090 11.018340 -12.736993 -4.524295 -3.099661 -0.267775 0.842071 0.000000 0.000000 0.000000 15.386755 -5.153877 -5.853289 -84.201119 -61.235919 27.322658 179.683581 -70.598685 179.761322 12.710001 -18.319700 -2.255943 -0.171951 1.458632 -0.000000 0.000000 0.000000 0.000000 0.000000 0.000000 0.000000 10.048155 -9.729318 3.532927 48.041296 -16.662399 -11.572404 179.689474 79.882755 179.919782 -19.560509 14.651459 -2.671329 0.328709 -0.520744 0.000000 0.000000 0.000000 0.000000 0.000000 0.000000 0.000000 
2.134149 16.298634 2.454998 3.921729 -59.410518 19.103721 -10.358788 0.528468 6.166765 2.958083 -8.020516 -51.879552 -0.622265 1.589097 35.803598 1.240302 5.279101 -2.765376 0.723600 -0.000000 -68.386900 10.558234 0.887636 -2.470656 -4.837444 -24.564273 -21.119034 1.155113 -0.645802 23.383402 -3.340358 -19.242615 3.186373 -4.742000 0.000000 -81.700501 0.472040 -4.226437 -4.014791 -0.498067 -4.334370 -4.172412 -6.280097 -4.408938 -2.659695 10.558759 -13.211104 -4.894054 -2.950342 -0.252927 0.739738 0.000000 0.000000 0.000000 15.019393 -4.972379 -5.918945 -84.683468 -61.086781 28.740026 179.719235 -70.699472 179.765780 12.623706 -18.319808 -2.240582 -0.176023 1.451816 -0.000000 0.000000 0.000000 0.000000 0.000000 0.000000 0.000000 9.281933 -10.059783 3.782729 46.886687 -18.473000 -12.754642 179.705303 81.447571 179.927650 -19.359818 14.484561 -2.609706 0.326723 -0.496046 0.000000 0.000000 0.000000 0.000000 0.000000 0.000000 0.000000 
